<?xml version="1.0" encoding="UTF-8"?>
<svg version="1.1" xmlns="http://www.w3.org/2000/svg" width="600" height="600">
<path d="M0 0 C1.26734985 0.36895386 1.26734985 0.36895386 2.56030273 0.74536133 C4.54001246 1.34967622 6.49272954 2.04125819 8.4375 2.75 C8.7675 3.41 9.0975 4.07 9.4375 4.75 C11.43298912 5.1093526 13.43399479 5.43842657 15.4375 5.75 C17.26790054 6.40625341 19.07618103 7.12693808 20.859375 7.90234375 C22.38582642 8.56592896 22.38582642 8.56592896 23.94311523 9.24291992 C25.01376221 9.71963135 26.08440918 10.19634277 27.1875 10.6875 C28.289729 11.17387939 29.39195801 11.66025879 30.52758789 12.16137695 C39.02619572 15.97407267 47.14193592 20.26016363 55.18359375 24.94921875 C58.1093217 26.91140513 58.1093217 26.91140513 60.4375 26.75 C60.4375 27.41 60.4375 28.07 60.4375 28.75 C61.50097656 29.13478516 61.50097656 29.13478516 62.5859375 29.52734375 C65.66366588 30.84697249 68.26910987 32.46947814 71.0625 34.3125 C73.90813329 36.18749947 76.20032389 37.6709413 79.4375 38.75 C80.46145751 39.72545426 81.46042107 40.72759266 82.4375 41.75 C83.50693407 42.56034437 84.5920011 43.35025528 85.6875 44.125 C91.98750836 48.78607629 97.80696675 54.03769988 103.68652344 59.21044922 C105.15391723 60.5006591 106.62706117 61.78432518 108.1015625 63.06640625 C113.31002626 67.65647381 118.26747645 72.48010303 123.1875 77.375 C123.81398438 77.99681152 124.44046875 78.61862305 125.0859375 79.25927734 C128.61997527 82.80553387 131.97252629 86.44174685 135.18457031 90.28271484 C136.21368077 91.48788901 137.31689456 92.62939456 138.4375 93.75 C142.4375 98.45588235 142.4375 98.45588235 142.4375 100.75 C143.0975 100.75 143.7575 100.75 144.4375 100.75 C145.72119141 102.38696289 145.72119141 102.38696289 147.1640625 104.66015625 C147.95925293 105.89403076 147.95925293 105.89403076 148.77050781 107.15283203 C149.32061523 108.00989746 149.87072266 108.86696289 150.4375 109.75 C151.50326819 111.33509618 152.57351149 112.91719357 153.6484375 114.49609375 C154.703125 116.05989583 155.7578125 117.62369792 156.8125 119.1875 C157.63041016 120.38922852 157.63041016 120.38922852 158.46484375 121.61523438 C158.97917969 122.38029297 159.49351562 123.14535156 160.0234375 123.93359375 C160.4879834 124.61993896 160.9525293 125.30628418 161.43115234 126.01342773 C162.4375 127.75 162.4375 127.75 162.4375 129.75 C163.0975 129.75 163.7575 129.75 164.4375 129.75 C165.41913422 131.68625098 166.39772454 133.62404539 167.375 135.5625 C168.19291016 137.18091797 168.19291016 137.18091797 169.02734375 138.83203125 C170.4375 141.75 170.4375 141.75 171.4375 144.75 C172.4275 145.08 173.4175 145.41 174.4375 145.75 C174.4375 146.74 174.4375 147.73 174.4375 148.75 C175.21297133 150.74136784 175.21297133 150.74136784 176.30078125 152.84765625 C176.69330078 153.65009766 177.08582031 154.45253906 177.49023438 155.27929688 C178.316853 156.94150518 179.14492973 158.60298934 179.97460938 160.26367188 C182.46558991 165.36309381 184.33401633 170.31297658 185.75073242 175.81420898 C186.2559139 177.94813279 186.2559139 177.94813279 188.4375 178.75 C189.1484375 180.578125 189.1484375 180.578125 189.8125 183 C190.06644531 183.89847656 190.32039062 184.79695312 190.58203125 185.72265625 C190.86433594 186.72167969 191.14664063 187.72070312 191.4375 188.75 C192.11964854 190.98081009 192.80727139 193.20995262 193.5 195.4375 C194.86448693 199.8617455 196.17664677 204.29498525 197.4375 208.75 C197.93730807 210.37505904 198.43732514 212.00005381 198.9375 213.625 C200.3398038 218.29699707 201.47180715 222.97022612 202.4375 227.75 C202.68306641 228.87341797 202.68306641 228.87341797 202.93359375 230.01953125 C205.61206799 243.20426878 206.36718939 256.83710873 207.0625 270.25 C207.1025415 271.01304443 207.14258301 271.77608887 207.18383789 272.56225586 C208.6119365 303.52648206 205.80852673 334.67438873 196.98608398 364.4519043 C196.2827076 367.00466961 196.2827076 367.00466961 196.4375 370.75 C195.7775 370.75 195.1175 370.75 194.4375 370.75 C194.23125 371.905 194.025 373.06 193.8125 374.25 C192.60695373 379.79905859 190.55558366 384.98594352 188.47021484 390.25195312 C187.30372023 393.23483619 186.4375 395.5159608 186.4375 398.75 C185.7775 398.75 185.1175 398.75 184.4375 398.75 C184.27241943 399.28584717 184.10733887 399.82169434 183.93725586 400.3737793 C176.763422 422.8456502 163.69869263 443.28546046 149.93359375 462.24609375 C148.42588104 464.32558264 147.06945395 466.36454341 145.74609375 468.57421875 C144.0407684 471.40964031 141.77479318 473.41270682 139.4375 475.75 C138.58322182 476.90141841 137.75039501 478.06900159 136.9375 479.25 C134.72696268 482.44146325 132.25906171 485.06951638 129.4375 487.75 C126.54786544 490.61892033 123.686463 493.51422028 120.8359375 496.421875 C113.9599616 503.40604678 107.14783867 510.15096061 99.37890625 516.1484375 C97.33760697 517.61198149 97.33760697 517.61198149 96.4375 519.75 C94.77784719 520.7615979 93.1090305 521.75815144 91.4375 522.75 C89.44103284 524.1662557 87.47755332 525.62353388 85.50976562 527.0793457 C78.33419978 532.38427192 71.05194662 537.40617816 63.4375 542.0625 C62.28084839 542.7730957 62.28084839 542.7730957 61.10083008 543.49804688 C55.70061332 546.75 55.70061332 546.75 53.4375 546.75 C53.1075 547.41 52.7775 548.07 52.4375 548.75 C40.847978 556.61832151 26.33822721 561.29741057 13.375 566.3125 C12.23909424 566.75408447 11.10318848 567.19566895 9.93286133 567.65063477 C8.33994263 568.25862915 8.33994263 568.25862915 6.71484375 568.87890625 C5.29546509 569.42140015 5.29546509 569.42140015 3.84741211 569.97485352 C1.4375 570.75 1.4375 570.75 -1.5625 570.75 C-1.8925 571.41 -2.2225 572.07 -2.5625 572.75 C-5.27394942 573.50944316 -7.93859555 574.16160574 -10.6875 574.75 C-12.19046789 575.08168947 -13.69307751 575.41500683 -15.1953125 575.75 C-15.9392627 575.915 -16.68321289 576.08 -17.44970703 576.25 C-19.29510242 576.68671941 -21.11926686 577.21126425 -22.9375 577.75 C-27.72377441 579.07035156 -32.54630076 579.91460084 -37.4375 580.75 C-38.45545654 580.92442627 -39.47341309 581.09885254 -40.5222168 581.27856445 C-66.4031769 585.62900639 -91.90309088 586.61161824 -118.07202148 584.46166992 C-123.92688738 583.98470116 -129.68804228 583.63481455 -135.5625 583.75 C-135.5625 583.09 -135.5625 582.43 -135.5625 581.75 C-136.284375 581.935625 -137.00625 582.12125 -137.75 582.3125 C-143.12011353 583.14785099 -148.42029498 581.06668065 -153.625 579.75 C-154.33205078 579.57210937 -155.03910156 579.39421875 -155.76757812 579.2109375 C-157.69943073 578.72479994 -159.63097821 578.23745029 -161.5625 577.75 C-162.2009082 577.59200928 -162.83931641 577.43401855 -163.49707031 577.27124023 C-192.96609729 569.83431676 -221.4044241 558.62864138 -247.2434082 542.55908203 C-248.04093506 542.0639209 -248.83846191 541.56875977 -249.66015625 541.05859375 C-250.36664307 540.61314209 -251.07312988 540.16769043 -251.80102539 539.70874023 C-253.52102823 538.5906471 -253.52102823 538.5906471 -255.5625 538.75 C-256.10132813 538.2034375 -256.64015625 537.656875 -257.1953125 537.09375 C-260.31456975 534.00537649 -263.8182453 531.71516077 -267.4375 529.25 C-275.06105617 523.96360436 -282.13924752 518.27101625 -289.0546875 512.09472656 C-290.40177038 510.893345 -291.76250568 509.70731214 -293.125 508.5234375 C-303.74113178 499.19940071 -313.94246255 489.24239135 -322.6875 478.12890625 C-324.43404202 475.91298106 -326.25318401 473.79762589 -328.125 471.6875 C-330.5625 468.75 -330.5625 468.75 -330.5625 466.75 C-331.2225 466.75 -331.8825 466.75 -332.5625 466.75 C-334.0703125 464.8515625 -334.0703125 464.8515625 -335.6875 462.375 C-336.22632813 461.56289063 -336.76515625 460.75078125 -337.3203125 459.9140625 C-338.5625 457.75 -338.5625 457.75 -338.5625 455.75 C-339.2225 455.75 -339.8825 455.75 -340.5625 455.75 C-340.81902344 455.26273437 -341.07554687 454.77546875 -341.33984375 454.2734375 C-343.63074596 450.03102601 -346.06120008 445.94430717 -348.7265625 441.92456055 C-384.56342497 387.71978238 -395.73396182 320.48397738 -391.5625 256.75 C-391.4903125 255.56664062 -391.418125 254.38328125 -391.34375 253.1640625 C-390.98494564 248.07672928 -390.28246276 243.31393173 -389.14038086 238.34985352 C-388.50892199 235.50895555 -387.95461883 232.658857 -387.40625 229.80078125 C-383.87216547 211.8493447 -378.80187588 194.93213074 -372.5625 177.75 C-372.11664551 176.51878418 -371.67079102 175.28756836 -371.21142578 174.01904297 C-370.77169434 172.83584473 -370.33196289 171.65264648 -369.87890625 170.43359375 C-369.4826001 169.3655249 -369.08629395 168.29745605 -368.67797852 167.19702148 C-367.5625 164.75 -367.5625 164.75 -365.5625 163.75 C-365.45035156 163.08355469 -365.33820313 162.41710937 -365.22265625 161.73046875 C-364.26806379 157.42068147 -362.12730555 153.90337787 -360 150.0625 C-359.16167912 148.53978362 -358.32686062 147.01513209 -357.49609375 145.48828125 C-357.12540771 144.81837158 -356.75472168 144.14846191 -356.37280273 143.45825195 C-355.41964175 141.76394651 -355.41964175 141.76394651 -355.5625 139.75 C-354.9025 139.75 -354.2425 139.75 -353.5625 139.75 C-353.29896729 138.86465576 -353.03543457 137.97931152 -352.76391602 137.06713867 C-351.59925147 133.8514717 -350.26824317 131.48288282 -348.33984375 128.67578125 C-347.71916016 127.76119141 -347.09847656 126.84660156 -346.45898438 125.90429688 C-345.81251953 124.96650391 -345.16605469 124.02871094 -344.5 123.0625 C-343.21438859 121.18568572 -341.9316957 119.30686794 -340.65234375 117.42578125 C-340.08378662 116.59989502 -339.51522949 115.77400879 -338.92944336 114.9230957 C-337.41718125 112.70979679 -337.41718125 112.70979679 -336.5625 109.75 C-335.9025 109.09 -335.2425 108.43 -334.5625 107.75 C-333.55163516 106.63475237 -332.5526288 105.50869747 -331.5625 104.375 C-330.7890625 103.49714844 -330.7890625 103.49714844 -330 102.6015625 C-328.54705495 100.73010611 -327.60985268 98.86634489 -326.5625 96.75 C-325.43018364 95.58438022 -324.2920499 94.42350479 -323.1171875 93.30078125 C-320.48063736 90.67085561 -318.07354496 87.8352289 -315.625 85.03125 C-313.35008522 82.51505638 -310.97161492 80.13822664 -308.5625 77.75 C-307.41024632 76.57670989 -306.25929815 75.40213682 -305.109375 74.2265625 C-292.86607029 61.77800003 -292.86607029 61.77800003 -286.39453125 57.14453125 C-284.50513544 55.78142099 -284.50513544 55.78142099 -282.87890625 53.9921875 C-262.21353192 33.98894152 -233.76576919 19.84233318 -207.61669922 8.63354492 C-205.80241755 7.85319249 -203.99981985 7.0457957 -202.19921875 6.234375 C-197.31694947 4.24161203 -192.3385997 2.65056185 -187.3125 1.0625 C-186.31992188 0.74216797 -185.32734375 0.42183594 -184.3046875 0.09179688 C-183.35335937 -0.21048828 -182.40203125 -0.51277344 -181.421875 -0.82421875 C-180.12975098 -1.23546997 -180.12975098 -1.23546997 -178.81152344 -1.6550293 C-176.5625 -2.25 -176.5625 -2.25 -173.5625 -2.25 C-173.2325 -2.91 -172.9025 -3.57 -172.5625 -4.25 C-170.19921875 -4.84765625 -170.19921875 -4.84765625 -167.25 -5.3125 C-163.15762134 -5.97361858 -159.23214956 -6.7833976 -155.2421875 -7.8984375 C-144.17409136 -10.76566018 -132.83330178 -11.7463831 -121.48681641 -12.93530273 C-119.71661309 -13.12580132 -117.94751949 -13.32773949 -116.18115234 -13.55102539 C-77.69694652 -18.38857047 -36.84540344 -10.84520191 0 0 Z " fill="#F5FCFE" transform="translate(392.5625,14.25)"/>
<path d="M0 0 C221.95871212 0 221.95871212 0 246.3125 22.875 C250.38101705 27.14279135 253.30879168 31.77092857 256 37 C256.66322266 38.28777344 256.66322266 38.28777344 257.33984375 39.6015625 C266.89649714 60.22534338 265.59440211 82.92431822 265.44952393 105.07666016 C265.43348957 108.55831231 265.44348073 112.03969103 265.45364285 115.52134991 C265.46067328 118.9302394 265.45272898 122.33897322 265.44038582 125.74784279 C265.43594718 127.34982514 265.43546599 128.95182466 265.43945122 130.55380821 C265.4683923 152.39753215 262.22835214 173.99235462 246.9375 190.625 C241.75752921 195.64613012 233.4952827 202 226 202 C226 205.96 226 209.92 226 214 C227.258125 214.350625 228.51625 214.70125 229.8125 215.0625 C242.14257694 219.19841557 251.25032965 226.95894318 257.1875 238.375 C264.89554181 253.98323565 266.15238912 270.52029723 266.16796875 287.6875 C266.17129715 288.98461914 266.17462555 290.28173828 266.17805481 291.61816406 C266.18400605 294.35466341 266.18589908 297.09113137 266.18530273 299.82763672 C266.18522181 302.59495629 266.19211639 305.36210915 266.20581055 308.12939453 C266.29468871 326.37540808 266.37580827 344.50604692 262.1875 362.375 C262.01718262 363.11556641 261.84686523 363.85613281 261.67138672 364.61914062 C257.55643516 381.67155914 248.79572099 397.55453155 233.875 407.3125 C174.2340627 441.63025511 11.79367905 420 0 420 C0 281.4 0 142.8 0 0 Z " fill="#2ED9F9" transform="translate(171,82)"/>
<path d="M0 0 C49.5 0 99 0 150 0 C150 16.83 150 33.66 150 51 C119.64 51 89.28 51 58 51 C58 94.23 58 137.46 58 182 C70.21 182 82.42 182 95 182 C95 198.83 95 215.66 95 233 C82.79 233 70.58 233 58 233 C58 278.21 58 323.42 58 370 C88.36 370 118.72 370 150 370 C150 386.5 150 403 150 420 C100.5 420 51 420 0 420 C0 281.4 0 142.8 0 0 Z " fill="#0296B0" transform="translate(171,82)"/>
<path d="M0 0 C39.04059668 0 39.04059668 0 46.6640625 7.29296875 C56.89341867 20.36381275 57.47487727 37.42436824 57.36328125 53.3046875 C57.36276031 54.80486043 57.36328702 56.30503404 57.36479187 57.8052063 C57.36470318 60.91614256 57.35448094 64.02681411 57.33618164 67.13769531 C57.31337845 71.09798533 57.31298312 75.05789452 57.31969929 79.01823235 C57.32305881 82.10341705 57.31637398 85.18851692 57.30657005 88.27368546 C57.30276084 89.73352743 57.30155175 91.19337889 57.3031559 92.65322495 C57.30545919 105.16969371 56.91627136 117.77810599 48.46875 127.8203125 C34.96492139 140.49607615 17.47794049 136 0 136 C0 91.12 0 46.24 0 0 Z " fill="#F3FCFE" transform="translate(323,315)"/>
<path d="M0 0 C39.51460427 0 39.51460427 0 48.17578125 6.9921875 C54.75486502 14.23340604 57.1139064 23.07985323 57.14526367 32.60351562 C57.15164352 33.92258911 57.15802338 35.2416626 57.16459656 36.60070801 C57.16612641 38.0358883 57.16723974 39.47106908 57.16796875 40.90625 C57.17118671 42.39253775 57.17455118 43.8788252 57.17805481 45.3651123 C57.184037 48.48202242 57.18589588 51.59890486 57.18530273 54.71582031 C57.18520171 58.67497364 57.19879579 62.63394522 57.21607494 66.59305573 C57.22729999 69.66634912 57.22921868 72.73960021 57.22869301 75.81291199 C57.22985961 77.27028524 57.23420554 78.72766008 57.24202538 80.18501282 C57.32020149 96.27297759 56.72114966 111.87374868 45.15625 124.0859375 C32.60256835 135.22960418 16.17060069 131 0 131 C0 87.77 0 44.54 0 0 Z " fill="#F4FCFE" transform="translate(323,133)"/>
<path d="M0 0 C12.21 0 24.42 0 37 0 C37 44.88 37 89.76 37 136 C24.79 136 12.58 136 0 136 C0 91.12 0 46.24 0 0 Z " fill="#F3FCFE" transform="translate(229,315)"/>
<path d="M0 0 C11.88 0 23.76 0 36 0 C36 43.23 36 86.46 36 131 C24.12 131 12.24 131 0 131 C0 87.77 0 44.54 0 0 Z " fill="#F3FDFE" transform="translate(229,133)"/>
<path d="M0 0 C10.23 0 20.46 0 31 0 C31 13.2 31 26.4 31 40 C20.77 40 10.54 40 0 40 C0 26.8 0 13.6 0 0 Z " fill="#F7FDFF" transform="translate(268,542)"/>
<path d="M0 0 C10.23 0 20.46 0 31 0 C31.33 8.91 31.66 17.82 32 27 C28.865 28.423125 25.73 29.84625 22.5 31.3125 C21.52869141 31.75505127 20.55738281 32.19760254 19.55664062 32.65356445 C5.51249156 39 5.51249156 39 0 39 C0 26.13 0 13.26 0 0 Z " fill="#F7FDFE" transform="translate(401,542)"/>
<path d="M0 0 C1.25554687 -0.00128906 2.51109375 -0.00257813 3.8046875 -0.00390625 C4.46178711 -0.00181152 5.11888672 0.0002832 5.79589844 0.00244141 C7.80411335 0.00779016 9.81210459 0.00249559 11.8203125 -0.00390625 C13.07585937 -0.00261719 14.33140625 -0.00132812 15.625 0 C16.78644531 0.00112793 17.94789063 0.00225586 19.14453125 0.00341797 C21.8125 0.1328125 21.8125 0.1328125 22.8125 1.1328125 C22.9008967 3.5084977 22.92780305 5.85489924 22.91015625 8.23046875 C22.9087413 8.93932724 22.90732635 9.64818573 22.90586853 10.37852478 C22.90025443 12.65082962 22.88769963 14.92303725 22.875 17.1953125 C22.86998681 18.73242046 22.86542359 20.26952995 22.86132812 21.80664062 C22.8511297 25.58209917 22.83155732 29.35734654 22.8125 33.1328125 C12.9125 33.1328125 3.0125 33.1328125 -7.1875 33.1328125 C-7.21041161 28.59376884 -7.23033781 24.05492448 -7.24243164 19.51586914 C-7.2474714 17.97061484 -7.2543032 16.42536534 -7.26293945 14.88012695 C-7.27502076 12.66356221 -7.28073173 10.44706032 -7.28515625 8.23046875 C-7.29031754 7.5356691 -7.29547882 6.84086945 -7.30079651 6.12501526 C-7.30099277 4.4605192 -7.24939129 2.79615751 -7.1875 1.1328125 C-5.35715945 -0.69752805 -2.45538008 0.00238453 0 0 Z " fill="#F6FDFE" transform="translate(241.1875,416.8671875)"/>
<path d="M0 0 C1.61814367 0.3028327 3.22063578 0.68977417 4.8125 1.109375 C5.80636719 1.36976562 6.80023438 1.63015625 7.82421875 1.8984375 C8.87222656 2.17945313 9.92023438 2.46046875 11 2.75 C12.52560547 3.14832031 12.52560547 3.14832031 14.08203125 3.5546875 C20.14011506 5.15669682 26.0779102 6.95194394 32 9 C31.86185777 12.9794733 31.71320326 16.95848415 31.5625 20.9375 C31.52318359 22.07380859 31.48386719 23.21011719 31.44335938 24.38085938 C31.38051758 26.00024414 31.38051758 26.00024414 31.31640625 27.65234375 C31.27974854 28.65257568 31.24309082 29.65280762 31.20532227 30.68334961 C31 33 31 33 30 34 C25.88422411 34.21789186 21.76535077 34.18579188 17.64428711 34.18530273 C15.57449736 34.18748734 13.50524207 34.20563491 11.43554688 34.22460938 C10.13810547 34.22654297 8.84066406 34.22847656 7.50390625 34.23046875 C6.30580322 34.23457764 5.1077002 34.23868652 3.87329102 34.24291992 C1 34 1 34 -1 32 C-1.24291992 28.94311523 -1.24291992 28.94311523 -1.23046875 25.05859375 C-1.23001053 24.37571793 -1.22955231 23.6928421 -1.2290802 22.98927307 C-1.22605891 21.54597231 -1.21817622 20.10267478 -1.20581055 18.65942383 C-1.1875433 16.44275447 -1.18530093 14.22650242 -1.18554688 12.00976562 C-1.14742468 1.14742468 -1.14742468 1.14742468 0 0 Z " fill="#F6FDFE" transform="translate(368,8)"/>
<path d="M0 0 C1.37466431 0.07069702 1.37466431 0.07069702 2.77709961 0.14282227 C4.11333374 0.20747681 4.11333374 0.20747681 5.4765625 0.2734375 C7.18573853 0.36540405 7.18573853 0.36540405 8.92944336 0.45922852 C14.34350586 0.73766602 14.34350586 0.73766602 19.86694336 1.02172852 C19.86694336 14.22172852 19.86694336 27.42172852 19.86694336 41.02172852 C16.89694336 41.02172852 13.92694336 41.02172852 10.86694336 41.02172852 C7.77099122 35.13669173 5.38427288 29.24876673 3.24194336 22.95922852 C2.94288086 22.10006836 2.64381836 21.2409082 2.33569336 20.35571289 C-2.2374615 7.11177548 -2.2374615 7.11177548 -3.13305664 1.02172852 C-2.13305664 0.02172852 -2.13305664 0.02172852 0 0 Z " fill="#F7FCFE" transform="translate(13.133056640625,374.978271484375)"/>
<path d="M0 0 C10.23 0 20.46 0 31 0 C31 12.87 31 25.74 31 39 C27.05808963 36.37205975 26.17689926 33.4496756 24.28125 29.21484375 C23.14066112 26.67864579 23.14066112 26.67864579 20 26 C18.4921875 24.3984375 18.4921875 24.3984375 16.875 22.375 C13.63992292 18.54236092 10.15195328 15.5961008 6.11328125 12.640625 C1.73764912 9.24364627 1.73764912 9.24364627 0 7 C0 4.69 0 2.38 0 0 Z " fill="#F4FDFE" transform="translate(401,85)"/>
<path d="M0 0 C0 9.9 0 19.8 0 30 C-10.23 30 -20.46 30 -31 30 C-32 23 -32 23 -30.70703125 21.14453125 C-30.08183594 20.70496094 -29.45664063 20.26539062 -28.8125 19.8125 C-26.80876158 18.34871636 -24.99486162 16.99471151 -23.26171875 15.2109375 C-20.07418178 12.09496871 -16.56057184 9.48615403 -13 6.8125 C-12.2884375 6.26658203 -11.576875 5.72066406 -10.84375 5.15820312 C-9.80734375 4.37799805 -9.80734375 4.37799805 -8.75 3.58203125 C-8.12609375 3.10999268 -7.5021875 2.6379541 -6.859375 2.15161133 C-4.69530825 0.81128795 -2.5770561 0 0 0 Z " fill="#F6FDFE" transform="translate(133,53)"/>
<path d="M0 0 C4.35701799 -0.0187619 8.71401357 -0.03225527 13.07106018 -0.04119873 C14.54837962 -0.04493342 16.02569637 -0.05002298 17.50300598 -0.05657959 C37.33051071 -0.14227292 57.66437197 0.67424911 76 9 C72.23217364 10.25594212 71.0401561 9.4982497 67.375 8.125 C62.14391279 6.27536892 57.5084521 5.45151247 52 5 C51.505 4.505 51.505 4.505 51 4 C49.43645305 3.84803167 47.86643679 3.76189612 46.29663086 3.70288086 C44.79518776 3.6429319 44.79518776 3.6429319 43.26341248 3.58177185 C42.1748848 3.54318558 41.08635712 3.5045993 39.96484375 3.46484375 C38.85645645 3.42186661 37.74806915 3.37888947 36.60609436 3.33460999 C33.0500506 3.19776143 29.49379774 3.06756464 25.9375 2.9375 C23.5331865 2.84613964 21.12888932 2.75434853 18.72460938 2.66210938 C12.81659926 2.43558463 6.90835369 2.21804387 1 2 C1 17.51 1 33.02 1 49 C11.8293331 48.88176321 11.8293331 48.88176321 22.65820312 48.72973633 C24.03254491 48.72096091 25.40689459 48.71331948 26.78125 48.70703125 C27.82104004 48.6840094 27.82104004 48.6840094 28.88183594 48.66052246 C34.1806173 48.65773558 38.16084246 49.80912935 43 52 C43.33 52.66 43.66 53.32 44 54 C40.7 53.34 37.4 52.68 34 52 C23.44 51.67 12.88 51.34 2 51 C2 94.23 2 137.46 2 182 C22.15572316 181.73471916 22.15572316 181.73471916 42 179 C40.6648238 181.67035239 39.81379502 181.97932338 37 183 C34.2211717 183.18034924 31.54628909 183.25659566 28.76953125 183.23046875 C27.9785051 183.23001053 27.18747894 183.22955231 26.3724823 183.2290802 C24.70574436 183.22606587 23.03900904 183.21820412 21.37231445 183.20581055 C18.81126015 183.18749113 16.25056627 183.18530139 13.68945312 183.18554688 C12.07030935 183.1806338 10.45116804 183.1748064 8.83203125 183.16796875 C8.0622847 183.16685593 7.29253815 183.1657431 6.49946594 183.16459656 C1.11606989 183.11606989 1.11606989 183.11606989 0 182 C-0.09763101 179.64712707 -0.12997445 177.32365314 -0.12025452 174.97032166 C-0.12110894 174.2262607 -0.12196337 173.48219975 -0.12284368 172.71559149 C-0.12450071 170.2035182 -0.1189735 167.69151058 -0.11352539 165.17944336 C-0.11324354 163.38621523 -0.11340121 161.59298698 -0.1139679 159.79975891 C-0.11425596 154.91566635 -0.10835786 150.03159813 -0.10139394 145.14751124 C-0.09516181 140.0492342 -0.09455671 134.95095666 -0.09336853 129.85267639 C-0.0902548 120.19122841 -0.08204084 110.52979168 -0.07201904 100.86834866 C-0.06085921 89.87216377 -0.05534778 78.87597837 -0.05032361 67.87978923 C-0.03985826 45.25318657 -0.02225801 22.62659392 0 0 Z " fill="#50CFE7" transform="translate(321,82)"/>
<path d="M0 0 C1.98 0 3.96 0 6 0 C6 7.26 6 14.52 6 22 C2.14934919 22.77013016 -0.81903793 23.12832096 -4.66796875 23.1328125 C-5.72564453 23.13410156 -6.78332031 23.13539062 -7.87304688 23.13671875 C-8.96681641 23.13285156 -10.06058594 23.12898438 -11.1875 23.125 C-12.29287109 23.12886719 -13.39824219 23.13273437 -14.53710938 23.13671875 C-15.59091797 23.13542969 -16.64472656 23.13414063 -17.73046875 23.1328125 C-18.69364014 23.13168457 -19.65681152 23.13055664 -20.64916992 23.12939453 C-23 23 -23 23 -25 22 C-25.125 14.375 -25.125 14.375 -24 11 C-21.79101562 9.75732422 -21.79101562 9.75732422 -18.90625 8.5546875 C-17.87628906 8.11769531 -16.84632813 7.68070313 -15.78515625 7.23046875 C-14.70105469 6.78316406 -13.61695313 6.33585937 -12.5 5.875 C-10.36382562 4.97836557 -8.22836806 4.08002078 -6.09375 3.1796875 C-5.14177734 2.78507324 -4.18980469 2.39045898 -3.20898438 1.98388672 C-1.06967564 1.18908654 -1.06967564 1.18908654 0 0 Z " fill="#F7FDFE" transform="translate(193,19)"/>
<path d="M0 0 C3.96 0 7.92 0 12 0 C12 13.2 12 26.4 12 40 C8.04 40 4.08 40 0 40 C0 26.8 0 13.6 0 0 Z " fill="#F6FDFE" transform="translate(367,168)"/>
<path d="M0 0 C10.23 0 20.46 0 31 0 C31 10.56 31 21.12 31 32 C30.67 31.01 30.34 30.02 30 29 C29.01 29 28.02 29 27 29 C25.7109375 27.09375 25.7109375 27.09375 24.375 24.5 C18.60422708 14.4860117 10.35789426 9.62687662 0 5 C0 3.35 0 1.7 0 0 Z " fill="#F2FDFE" transform="translate(401,293)"/>
<path d="M0 0 C9.57 0 19.14 0 29 0 C29 4.95 29 9.9 29 15 C25.03080137 15.16548936 21.06167182 15.32788113 17.09204102 15.48217773 C15.74072921 15.53565802 14.38948948 15.59099194 13.03833008 15.64819336 C11.09997011 15.72993571 9.16131296 15.80453323 7.22265625 15.87890625 C6.05484619 15.9260376 4.88703613 15.97316895 3.68383789 16.02172852 C1 16 1 16 0 15 C-0.07320163 12.4672235 -0.09227569 9.96896082 -0.0625 7.4375 C-0.041875 4.983125 -0.02125 2.52875 0 0 Z " fill="#F7FDFE" transform="translate(234,317)"/>
<path d="M0 0 C0 13.2 0 26.4 0 40 C-5.94 40 -11.88 40 -18 40 C-16.28014875 32.91825955 -14.04661266 26.16960632 -11.4375 19.375 C-10.98008423 18.16577881 -10.98008423 18.16577881 -10.51342773 16.93212891 C-8.24296444 11.12148222 -8.24296444 11.12148222 -6 10 C-5.64080332 8.33871537 -5.31088368 6.67099977 -5 5 C-2.91666667 0 -2.91666667 0 0 0 Z " fill="#F7FDFD" transform="translate(33,168)"/>
<path d="M0 0 C10.56 0 21.12 0 32 0 C31 8 31 8 29.125 9.9375 C25.40968042 11.79515979 22.55670494 12.11934765 18.45703125 12.09765625 C17.38388672 12.09443359 16.31074219 12.09121094 15.20507812 12.08789062 C14.08552734 12.07951172 12.96597656 12.07113281 11.8125 12.0625 C10.68134766 12.05798828 9.55019531 12.05347656 8.38476562 12.04882812 C5.58982124 12.03703511 2.79490401 12.01909957 0 12 C0 8.04 0 4.08 0 0 Z " fill="#F4FDFE" transform="translate(334,251)"/>
<path d="M0 0 C9.9 0 19.8 0 30 0 C30 3.96 30 7.92 30 12 C20.1 12 10.2 12 0 12 C0 8.04 0 4.08 0 0 Z " fill="#F6FDFE" transform="translate(234,251)"/>
<path d="M0 0 C1.56047445 0.00015913 3.12095416 0.00585397 4.68139648 0.01586914 C5.91115456 0.01799156 5.91115456 0.01799156 7.16575623 0.02015686 C9.79470406 0.0257725 12.42356797 0.0383276 15.05249023 0.05102539 C16.8304838 0.05603838 18.60847869 0.06060163 20.38647461 0.06469727 C24.75434569 0.07574701 29.12215371 0.09302208 33.48999023 0.11352539 C33.98499023 1.10352539 33.98499023 1.10352539 34.48999023 2.11352539 C22.27999023 2.11352539 10.06999023 2.11352539 -2.51000977 2.11352539 C-2.51000977 46.99352539 -2.51000977 91.87352539 -2.51000977 138.11352539 C-3.17000977 137.78352539 -3.83000977 137.45352539 -4.51000977 137.11352539 C-4.53333809 119.39860072 -4.55098861 101.68368002 -4.56182194 83.96874332 C-4.56698504 75.7439682 -4.574028 67.5192026 -4.58544922 59.29443359 C-4.59539563 52.12832093 -4.60186309 44.96221516 -4.60409826 37.79609579 C-4.60540544 33.9993555 -4.60849175 30.20263494 -4.61573982 26.40590096 C-4.62249937 22.83633637 -4.62462686 19.26679976 -4.62311745 15.69722939 C-4.62352612 13.75437693 -4.62892166 11.81152755 -4.63442993 9.86868286 C-4.63305527 8.72298325 -4.6316806 7.57728363 -4.63026428 6.39686584 C-4.63118608 5.39487687 -4.63210787 4.3928879 -4.63305759 3.36053562 C-4.42983273 -0.35060944 -3.86306531 0.12494438 0 0 Z " fill="#2C93A5" transform="translate(231.510009765625,312.886474609375)"/>
<path d="M0 0 C2.31 0 4.62 0 7 0 C7 13.2 7 26.4 7 40 C4.36 40 1.72 40 -1 40 C-1.02467759 34.62484067 -1.04284928 29.24971415 -1.05493164 23.87451172 C-1.05996737 22.04507879 -1.06679627 20.21564991 -1.07543945 18.38623047 C-1.08753824 15.76008102 -1.09323583 13.13398468 -1.09765625 10.5078125 C-1.10281754 9.68693146 -1.10797882 8.86605042 -1.11329651 8.02029419 C-1.11387171 2.22774341 -1.11387171 2.22774341 0 0 Z " fill="#F5FDFE" transform="translate(325,376)"/>
<path d="M0 0 C10.23 0 20.46 0 31 0 C31 44.88 31 89.76 31 136 C30.34 135.67 29.68 135.34 29 135 C27.85364777 107.22164087 28.03825093 79.49828292 28.39489746 51.70410156 C28.46700496 45.96360102 28.53095388 40.22300929 28.59570312 34.48242188 C28.72273481 23.32151067 28.85916939 12.16074562 29 1 C19.43 1 9.86 1 0 1 C0 0.67 0 0.34 0 0 Z " fill="#BDF1F6" transform="translate(235,315)"/>
<path d="M0 0 C0.33 0 0.66 0 1 0 C1 12.54 1 25.08 1 38 C11.23 38 21.46 38 32 38 C32.33 34.37 32.66 30.74 33 27 C33.99 27 34.98 27 36 27 C35.67 30.63 35.34 34.26 35 38 C37.64 38.33 40.28 38.66 43 39 C39.52692308 41.10865385 39.52692308 41.10865385 36.859375 40.55859375 C35.93898438 40.28208984 35.93898438 40.28208984 35 40 C35.01047363 41.07483643 35.02094727 42.14967285 35.03173828 43.25708008 C35.06792779 47.24337435 35.09089663 51.22965408 35.10986328 55.21606445 C35.11992326 56.94167523 35.13357276 58.66726895 35.15087891 60.39282227 C35.17512754 62.8726014 35.18648301 65.35215523 35.1953125 67.83203125 C35.20563507 68.60400345 35.21595764 69.37597565 35.22659302 70.17134094 C35.22739422 73.99281476 35.17242595 75.74136107 33 79 C33 66.13 33 53.26 33 40 C17.16 40.495 17.16 40.495 1 41 C1 53.54 1 66.08 1 79 C0.67 79 0.34 79 0 79 C-0.495 59.695 -0.495 59.695 -1 40 C-10.57 40 -20.14 40 -30 40 C-30 39.67 -30 39.34 -30 39 C-20.43 38.67 -10.86 38.34 -1 38 C-0.67 25.46 -0.34 12.92 0 0 Z " fill="#E8F8FB" transform="translate(499,86)"/>
<path d="M0 0 C2.31 0 4.62 0 7 0 C7 10.89 7 21.78 7 33 C4.36 33 1.72 33 -1 33 C-1.02465392 28.46102295 -1.04283789 23.92208457 -1.05493164 19.38305664 C-1.0599714 17.83780234 -1.0668032 16.29255284 -1.07543945 14.74731445 C-1.08752076 12.53074971 -1.09323173 10.31424782 -1.09765625 8.09765625 C-1.10281754 7.4028566 -1.10797882 6.70805695 -1.11329651 5.99220276 C-1.11349277 4.3277067 -1.06189129 2.66334501 -1 1 C-0.67 0.67 -0.34 0.34 0 0 Z " fill="#F5FDFE" transform="translate(325,417)"/>
<path d="M0 0 C3.31248187 -0.02888146 6.62493167 -0.04675799 9.9375 -0.0625 C10.88302734 -0.07087891 11.82855469 -0.07925781 12.80273438 -0.08789062 C14.15141602 -0.09272461 14.15141602 -0.09272461 15.52734375 -0.09765625 C16.77632446 -0.10551147 16.77632446 -0.10551147 18.05053711 -0.11352539 C20 0 20 0 21 1 C21.08651611 2.41570123 21.10704904 3.835595 21.09765625 5.25390625 C21.09443359 6.10791016 21.09121094 6.96191406 21.08789062 7.84179688 C21.07951172 8.73962891 21.07113281 9.63746094 21.0625 10.5625 C21.05798828 11.46419922 21.05347656 12.36589844 21.04882812 13.29492188 C21.03700225 15.53001314 21.0205222 17.76497437 21 20 C18 20 18 20 16.00708008 18.37939453 C15.26868896 17.63802246 14.53029785 16.89665039 13.76953125 16.1328125 C12.96708984 15.32972656 12.16464844 14.52664063 11.33789062 13.69921875 C10.50451172 12.84972656 9.67113281 12.00023437 8.8125 11.125 C7.96751953 10.28324219 7.12253906 9.44148438 6.25195312 8.57421875 C0 2.26675999 0 2.26675999 0 0 Z " fill="#F7FDFE" transform="translate(79,501)"/>
<path d="M0 0 C10.23 0 20.46 0 31 0 C31 0.33 31 0.66 31 1 C21.1 1 11.2 1 1 1 C1 45.88 1 90.76 1 137 C20.58556946 136.87285958 20.58556946 136.87285958 40 135 C35 139 35 139 0 139 C0 93.13 0 47.26 0 0 Z " fill="#6FCEE2" transform="translate(322,314)"/>
<path d="M0 0 C6 1 6 1 8.3125 3.8125 C10.44692404 8.07252814 10.61066569 12.43464525 10.82421875 17.1328125 C10.95811114 20.37877938 10.95811114 20.37877938 12 25 C8.04 25 4.08 25 0 25 C0 16.75 0 8.5 0 0 Z " fill="#F4FDFE" transform="translate(367,141)"/>
<path d="M0 0 C39.05405405 0 39.05405405 0 49 8 C47 9 47 9 45 8.75 C43 8 43 8 41 5 C27.94729388 0.62043211 27.94729388 0.62043211 1 1 C1 43.57 1 86.14 1 130 C10.9 130 20.8 130 31 130 C31 130.33 31 130.66 31 131 C20.77 131 10.54 131 0 131 C0 87.77 0 44.54 0 0 Z " fill="#D2FDFE" transform="translate(323,133)"/>
<path d="M0 0 C0.33 0 0.66 0 1 0 C1 12.87 1 25.74 1 39 C8.59 39 16.18 39 24 39 C23.67 39.99 23.34 40.98 23 42 C12.11 41.505 12.11 41.505 1 41 C1 48.26 1 55.52 1 63 C-1 61 -1 61 -1.22705078 59.02880859 C-1.21657715 58.24328613 -1.20610352 57.45776367 -1.1953125 56.6484375 C-1.19031738 55.88192871 -1.18532227 55.11541992 -1.18017578 54.32568359 C-1.15286377 52.86509521 -1.15286377 52.86509521 -1.125 51.375 C-1.063125 46.734375 -1.063125 46.734375 -1 42 C-10.57 41.67 -20.14 41.34 -30 41 C-30 40.34 -30 39.68 -30 39 C-20.43 38.67 -10.86 38.34 -1 38 C-0.67 25.46 -0.34 12.92 0 0 Z " fill="#E8F8FB" transform="translate(499,460)"/>
<path d="M0 0 C54.71973527 -0.6628369 54.71973527 -0.6628369 76 9 C72.23217364 10.25594212 71.0401561 9.4982497 67.375 8.125 C62.14391279 6.27536892 57.5084521 5.45151247 52 5 C51.505 4.505 51.505 4.505 51 4 C49.43645305 3.84803167 47.86643679 3.76189612 46.29663086 3.70288086 C44.79518776 3.6429319 44.79518776 3.6429319 43.26341248 3.58177185 C42.1748848 3.54318558 41.08635712 3.5045993 39.96484375 3.46484375 C38.85645645 3.42186661 37.74806915 3.37888947 36.60609436 3.33460999 C33.0500506 3.19776143 29.49379774 3.06756464 25.9375 2.9375 C23.5331865 2.84613964 21.12888932 2.75434853 18.72460938 2.66210938 C12.81658694 2.43639912 6.90837928 2.21615615 1 2 C0.67 1.34 0.34 0.68 0 0 Z " fill="#4FD4EC" transform="translate(321,82)"/>
<path d="M0 0 C0.66 0 1.32 0 2 0 C2.22786458 2.05078125 2.45572917 4.1015625 2.68359375 6.15234375 C2.81886614 8.01140229 2.81886614 8.01140229 4 9 C4.11637201 11.59008255 4.16799998 14.15386496 4.17700195 16.74511719 C4.18357315 17.55653168 4.19014435 18.36794617 4.19691467 19.20394897 C4.21669906 21.90159182 4.22832267 24.59917882 4.23828125 27.296875 C4.24235678 28.21645241 4.2464323 29.13602982 4.25063133 30.08347321 C4.27151569 34.95213092 4.28580617 39.82076026 4.29516602 44.68945312 C4.30622527 49.72131363 4.34061276 54.75273126 4.38033772 59.78443527 C4.40647671 63.65005316 4.41485552 67.51556523 4.41844749 71.38126373 C4.42332183 73.23602534 4.43495986 75.09078196 4.45348549 76.94545746 C4.47781568 79.54309665 4.47692314 82.1395866 4.4699707 84.73730469 C4.48278076 85.5032193 4.49559082 86.26913391 4.50878906 87.05825806 C4.46065481 91.99531757 3.47934198 94.49778516 0 98 C0.14129333 97.24487625 0.28258667 96.4897525 0.42816162 95.71174622 C1.95567362 86.84165682 2.29486957 78.17043773 2.265625 69.19921875 C2.2669778 67.70913124 2.26892339 66.21904416 2.27142334 64.72895813 C2.27434851 61.6253331 2.27016386 58.52182426 2.26074219 55.41821289 C2.24937938 51.48871127 2.25590374 47.55948397 2.26788712 43.62999249 C2.27520271 40.55743947 2.27277348 37.48494873 2.26763153 34.41239357 C2.26632008 32.96587909 2.26785211 31.51935849 2.27259064 30.07285118 C2.29862529 19.89248551 1.47060836 10.06538661 0 0 Z " fill="#4DCFE6" transform="translate(377,336)"/>
<path d="M0 0 C7.92 0 15.84 0 24 0 C23.67 0.99 23.34 1.98 23 3 C20.22397585 3.86378434 17.58519964 4.53921495 14.75 5.125 C13.60337891 5.37830078 13.60337891 5.37830078 12.43359375 5.63671875 C10.95291384 5.96149655 9.47051074 6.27853832 7.98632812 6.58691406 C6.32539666 6.93232901 4.6697367 7.30296573 3.015625 7.6796875 C2.01789063 7.83824219 2.01789063 7.83824219 1 8 C0.67 7.67 0.34 7.34 0 7 C0 4.69 0 2.38 0 0 Z " fill="#F6FCFC" transform="translate(367,584)"/>
<path d="M0 0 C0.66 0 1.32 0 2 0 C2.06963615 10.68364815 2.12288036 21.36724193 2.15543652 32.05107117 C2.17106507 37.0124821 2.19225192 41.97373728 2.22631836 46.93505859 C2.25901214 51.72667971 2.27687414 56.5181514 2.28463173 61.30987549 C2.29015728 63.13424022 2.30094727 64.95859716 2.31719017 66.78289795 C2.33909783 69.34632786 2.3419614 71.90914717 2.34057617 74.47265625 C2.35675491 75.59367989 2.35675491 75.59367989 2.3732605 76.73735046 C2.34205935 82.10429009 1.08620322 86.05317542 -1 91 C-1.33 91.99 -1.66 92.98 -2 94 C-2.66 94 -3.32 94 -4 94 C-3.79503906 93.23816406 -3.59007812 92.47632813 -3.37890625 91.69140625 C-3.10949219 90.65886719 -2.84007812 89.62632812 -2.5625 88.5625 C-2.29566406 87.55316406 -2.02882813 86.54382813 -1.75390625 85.50390625 C0.33837166 75.77969232 0.13124279 66.03961785 0.09765625 56.15234375 C0.09578809 54.52852929 0.09436607 52.90471427 0.09336853 51.28089905 C0.08957469 47.03458056 0.07977163 42.788297 0.06866455 38.54199219 C0.05838261 34.19792147 0.05385646 29.85384504 0.04882812 25.50976562 C0.03814615 17.0064945 0.02110796 8.50325161 0 0 Z " fill="#4FCEE5" transform="translate(379,154)"/>
<path d="M0 0 C3.15376424 4.73064636 3.12685346 9.01206579 3.14526367 14.60351562 C3.15483345 16.58212585 3.15483345 16.58212585 3.16459656 18.60070801 C3.16612641 20.0358883 3.16723974 21.47106908 3.16796875 22.90625 C3.17118671 24.39253775 3.17455118 25.8788252 3.17805481 27.3651123 C3.184037 30.48202242 3.18589588 33.59890486 3.18530273 36.71582031 C3.18520171 40.67497364 3.19879579 44.63394522 3.21607494 48.59305573 C3.22729999 51.66634912 3.22921868 54.73960021 3.22869301 57.81291199 C3.22985961 59.27028524 3.23420554 60.72766008 3.24202538 62.18501282 C3.28628021 71.29227196 2.68724566 80.03189452 1 89 C0.67 89 0.34 89 0 89 C-0.02699725 86.72923158 -0.04639453 84.45837179 -0.0625 82.1875 C-0.07990234 80.29064453 -0.07990234 80.29064453 -0.09765625 78.35546875 C0 75 0 75 1 72 C1.09370168 70.06290181 1.12792952 68.1227122 1.12939453 66.18334961 C1.13254669 64.98878647 1.13569885 63.79422333 1.13894653 62.5634613 C1.1369223 61.27279251 1.13489807 59.98212372 1.1328125 58.65234375 C1.13348611 57.31620771 1.13445662 55.98007178 1.13571167 54.64393616 C1.13718544 51.84553865 1.13504405 49.04717309 1.13037109 46.2487793 C1.12466846 42.65846438 1.12795819 39.06822414 1.13394356 35.47791195 C1.13755312 32.71988866 1.13640886 29.96188315 1.13381577 27.20385933 C1.13282272 25.23510311 1.13586366 23.26634621 1.13894653 21.29759216 C1.13579437 20.10618118 1.13264221 18.9147702 1.12939453 17.68725586 C1.12859894 16.63485214 1.12780334 15.58244843 1.12698364 14.49815369 C1.16752261 12.00068609 1.16752261 12.00068609 0 10 C-0.06996014 8.29297265 -0.08440154 6.58331997 -0.0625 4.875 C-0.05347656 3.96492187 -0.04445313 3.05484375 -0.03515625 2.1171875 C-0.02355469 1.41851562 -0.01195312 0.71984375 0 0 Z " fill="#D5FDFD" transform="translate(377,151)"/>
<path d="M0 0 C0.33 0 0.66 0 1 0 C1.04652912 8.82375778 1.08197308 17.64747272 1.10362434 26.47132683 C1.11402067 30.56947059 1.12810316 34.66752985 1.15087891 38.765625 C1.17275646 42.72731471 1.18459977 46.6889236 1.18975449 50.6506691 C1.19342366 52.15518591 1.20058794 53.65969876 1.21146011 55.16418076 C1.26790827 63.30604827 1.10194119 71.08036943 -1 79 C-1.33 79 -1.66 79 -2 79 C-2 74.71 -2 70.42 -2 66 C-5.96 65.505 -5.96 65.505 -10 65 C-10 64.67 -10 64.34 -10 64 C-5.545 63.505 -5.545 63.505 -1 63 C-0.67 42.21 -0.34 21.42 0 0 Z " fill="#D4FBFD" transform="translate(379,352)"/>
<path d="M0 0 C2.45286296 3.67929445 2.23228878 5.47377907 2.1953125 9.85546875 C2.1924826 10.51710526 2.18965271 11.17874176 2.18673706 11.86042786 C2.17555918 13.96963737 2.15045981 16.07841925 2.125 18.1875 C2.11496707 19.61913448 2.10584176 21.05077564 2.09765625 22.48242188 C2.07562795 25.98841977 2.04111485 29.49416813 2 33 C1.01 33 0.02 33 -1 33 C-1.02465392 28.46102295 -1.04283789 23.92208457 -1.05493164 19.38305664 C-1.0599714 17.83780234 -1.0668032 16.29255284 -1.07543945 14.74731445 C-1.08752076 12.53074971 -1.09323173 10.31424782 -1.09765625 8.09765625 C-1.10281754 7.4028566 -1.10797882 6.70805695 -1.11329651 5.99220276 C-1.11349277 4.3277067 -1.06189129 2.66334501 -1 1 C-0.67 0.67 -0.34 0.34 0 0 Z " fill="#F0FEFE" transform="translate(231,417)"/>
<path d="M0 0 C4.69560343 -0.07466101 9.39085443 -0.12884101 14.08691406 -0.16479492 C15.68137641 -0.17979745 17.27579808 -0.20020621 18.87011719 -0.22631836 C21.17393077 -0.26308134 23.4771946 -0.27981155 25.78125 -0.29296875 C26.48366821 -0.30845261 27.18608643 -0.32393646 27.90979004 -0.33988953 C33.19668848 -0.34165099 37.1722264 0.81428329 42 3 C42.495 3.99 42.495 3.99 43 5 C42.46375 4.86142578 41.9275 4.72285156 41.375 4.58007812 C32.60775254 2.55409413 23.79249118 2.60009339 14.84619141 2.46826172 C12.77222331 2.43465028 10.69872797 2.38958871 8.625 2.34375 C7.40039062 2.32505859 6.17578125 2.30636719 4.9140625 2.28710938 C2 2 2 2 0 0 Z " fill="#52D0E7" transform="translate(322,131)"/>
<path d="M0 0 C3.7602985 0.58107632 6.53035032 1.65199496 9.8125 3.5625 C10.60269531 4.01753906 11.39289063 4.47257812 12.20703125 4.94140625 C12.79871094 5.29074219 13.39039063 5.64007813 14 6 C14 6.99 14 7.98 14 9 C12.41676312 9.027193 10.83338938 9.04648306 9.25 9.0625 C7.92742187 9.07990234 7.92742187 9.07990234 6.578125 9.09765625 C4.2181162 9.00826198 2.25501476 8.66912821 0 8 C0 5.36 0 2.72 0 0 Z " fill="#F5FCFD" transform="translate(434,33)"/>
<path d="M0 0 C0 0.66 0 1.32 0 2 C-0.99 2 -1.98 2 -3 2 C-3 3.98 -3 5.96 -3 8 C-15.375 8.495 -15.375 8.495 -28 9 C-28 8.67 -28 8.34 -28 8 C-27.46109131 7.86424561 -26.92218262 7.72849121 -26.36694336 7.58862305 C-23.88892483 6.96081584 -21.4132418 6.32422357 -18.9375 5.6875 C-18.08994141 5.47416016 -17.24238281 5.26082031 -16.36914062 5.04101562 C-11.33311254 3.73825933 -5.01317166 0 0 0 Z " fill="#DDFDFE" transform="translate(402,491)"/>
<path d="M0 0 C0 2.64 0 5.28 0 8 C-4.62 8 -9.24 8 -14 8 C-11.9516091 3.9032182 -11.35134658 3.246791 -7.5625 1.1875 C-6.78003906 0.74792969 -5.99757812 0.30835938 -5.19140625 -0.14453125 C-3 -1 -3 -1 0 0 Z " fill="#F5FCFD" transform="translate(166,34)"/>
<path d="M0 0 C-4.28740128 3.19070979 -7.98147103 3.40103403 -13.14453125 3.29296875 C-13.91431808 3.28872391 -14.68410492 3.28447906 -15.47721863 3.28010559 C-17.92267646 3.26338597 -20.36729357 3.2257477 -22.8125 3.1875 C-24.47589951 3.17244441 -26.13931201 3.15875754 -27.80273438 3.14648438 C-31.86881082 3.11350465 -35.93426313 3.06177006 -40 3 C-40 2.34 -40 1.68 -40 1 C-38.98574951 0.97494385 -37.97149902 0.9498877 -36.92651367 0.92407227 C-33.16368973 0.82990355 -29.40104631 0.72970595 -25.63842773 0.62768555 C-24.00988996 0.58437251 -22.38130784 0.54269482 -20.75268555 0.50268555 C-18.41181065 0.44489497 -16.07115824 0.38122602 -13.73046875 0.31640625 C-13.00224411 0.29969376 -12.27401947 0.28298126 -11.52372742 0.26576233 C-0.19855455 -0.06618485 -0.19855455 -0.06618485 0 0 Z " fill="#5CD5EB" transform="translate(362,450)"/>
<path d="M0 0 C1.98 0 3.96 0 6 0 C6 5.28 6 10.56 6 16 C5.34 16 4.68 16 4 16 C0.67424388 10.4174808 -0.46450943 6.50313209 0 0 Z " fill="#F5FCFD" transform="translate(27,417)"/>
<path d="M0 0 C4.95 0 9.9 0 15 0 C15 0.66 15 1.32 15 2 C18.3 2.33 21.6 2.66 25 3 C25 3.33 25 3.66 25 4 C16.75 3.34 8.5 2.68 0 2 C0 1.34 0 0.68 0 0 Z " fill="#CCFDFE" transform="translate(353,81)"/>
<path d="M0 0 C0.99 0 1.98 0 3 0 C3 3.96 3 7.92 3 12 C2.01 12 1.02 12 0 12 C0 8.04 0 4.08 0 0 Z " fill="#F0FEFE" transform="translate(230,251)"/>
<path d="M0 0 C0.76763672 -0.00773437 1.53527344 -0.01546875 2.32617188 -0.0234375 C6.20957821 -0.00989467 8.13774677 0.05016451 11.4375 2.25 C-5.4554385 3.58257403 -5.4554385 3.58257403 -12.5625 2.25 C-8.61738039 -0.40112038 -4.56869381 -0.04626525 0 0 Z " fill="#EAF9FB" transform="translate(417.5625,40.75)"/>
<path d="M0 0 C0.33 0 0.66 0 1 0 C1.25153688 6.28842188 0.51233939 10.73149092 -3 16 C-3.66 16 -4.32 16 -5 16 C-4.80664062 15.43152344 -4.61328125 14.86304688 -4.4140625 14.27734375 C-2.81863577 9.54635062 -1.33099414 4.81205575 0 0 Z " fill="#D4FCFD" transform="translate(432,245)"/>
<path d="M0 0 C0.33 0 0.66 0 1 0 C1.40534196 6.48547129 0.57239229 11.03204989 -2 17 C-2.33 17.99 -2.66 18.98 -3 20 C-3.66 20 -4.32 20 -5 20 C-4.01 16.04 -3.02 12.08 -2 8 C-1.34 8 -0.68 8 0 8 C0 5.36 0 2.72 0 0 Z " fill="#47D2EB" transform="translate(380,228)"/>
<path d="M0 0 C0.66 0 1.32 0 2 0 C0.59928507 5.29158974 -2.85487245 7.77478044 -7 11 C-7.66 10.67 -8.32 10.34 -9 10 C-8.34 8.68 -7.68 7.36 -7 6 C-6.34 6 -5.68 6 -5 6 C-4.01 5.67 -3.02 5.34 -2 5 C-2 4.34 -2 3.68 -2 3 C-1.34 3 -0.68 3 0 3 C0 2.01 0 1.02 0 0 Z " fill="#D7FDFE" transform="translate(373,436)"/>
<path d="M0 0 C0.8125 1.6875 0.8125 1.6875 1 4 C-1.1875 6.8125 -1.1875 6.8125 -4 9 C-6.17578125 8.63671875 -6.17578125 8.63671875 -8 8 C-7.50628906 7.59007812 -7.01257813 7.18015625 -6.50390625 6.7578125 C-5.86324219 6.21898437 -5.22257812 5.68015625 -4.5625 5.125 C-3.92441406 4.59132813 -3.28632813 4.05765625 -2.62890625 3.5078125 C-0.89194996 2.0777243 -0.89194996 2.0777243 0 0 Z " fill="#48D1E9" transform="translate(374,438)"/>
<path d="M0 0 C3 1 3 1 3 1 Z " fill="#EFF6F8" transform="translate(353,2)"/>
<path d="" fill="#F6F9F9" transform="translate(0,0)"/>
<path d="" fill="#EEF5F7" transform="translate(0,0)"/>
<path d="" fill="#F3F7F8" transform="translate(0,0)"/>
<path d="" fill="#F7FBFC" transform="translate(0,0)"/>
<path d="" fill="#FBFDFD" transform="translate(0,0)"/>
<path d="" fill="#EDF4F5" transform="translate(0,0)"/>
<path d="M0 0 C2 1 2 1 2 1 Z " fill="#F6F8F9" transform="translate(578,185)"/>
<path d="" fill="#F0F7F9" transform="translate(0,0)"/>
<path d="M0 0 C2 1 2 1 2 1 Z " fill="#EFF6F8" transform="translate(547,122)"/>
<path d="" fill="#EAF0F2" transform="translate(0,0)"/>
<path d="" fill="#DFE6E8" transform="translate(0,0)"/>
<path d="" fill="#E1E8E9" transform="translate(0,0)"/>
<path d="" fill="#F5F8F9" transform="translate(0,0)"/>
<path d="" fill="#F5F8F9" transform="translate(0,0)"/>
<path d="" fill="#F3F6F6" transform="translate(0,0)"/>
<path d="" fill="#F8F9FA" transform="translate(0,0)"/>
<path d="" fill="#F7FCFC" transform="translate(0,0)"/>
<path d="" fill="#FAFCFD" transform="translate(0,0)"/>
<path d="" fill="#EDF4F6" transform="translate(0,0)"/>
<path d="" fill="#F2F9FB" transform="translate(0,0)"/>
<path d="" fill="#F2F5F6" transform="translate(0,0)"/>
<path d="" fill="#F8FBFC" transform="translate(0,0)"/>
<path d="" fill="#EDF4F6" transform="translate(0,0)"/>
<path d="" fill="#F1F8FA" transform="translate(0,0)"/>
<path d="" fill="#EAF0F2" transform="translate(0,0)"/>
<path d="" fill="#EDF4F6" transform="translate(0,0)"/>
<path d="" fill="#E3EAEB" transform="translate(0,0)"/>
<path d="" fill="#F2F9FA" transform="translate(0,0)"/>
<path d="" fill="#EAF0F2" transform="translate(0,0)"/>
<path d="" fill="#E3EAEC" transform="translate(0,0)"/>
<path d="" fill="#F1F8FA" transform="translate(0,0)"/>
<path d="" fill="#F9FCFD" transform="translate(0,0)"/>
<path d="" fill="#F7FCFC" transform="translate(0,0)"/>
<path d="" fill="#F0F7F8" transform="translate(0,0)"/>
<path d="" fill="#EFF6F7" transform="translate(0,0)"/>
<path d="" fill="#EDF4F5" transform="translate(0,0)"/>
<path d="" fill="#EFF6F7" transform="translate(0,0)"/>
<path d="" fill="#EDF4F5" transform="translate(0,0)"/>
<path d="" fill="#F2F9FB" transform="translate(0,0)"/>
<path d="" fill="#F9FBFC" transform="translate(0,0)"/>
<path d="" fill="#F0F7F8" transform="translate(0,0)"/>
<path d="" fill="#EFF6F7" transform="translate(0,0)"/>
<path d="" fill="#EFF6F7" transform="translate(0,0)"/>
<path d="" fill="#F6FAFB" transform="translate(0,0)"/>
<path d="" fill="#EDF5F7" transform="translate(0,0)"/>
<path d="" fill="#F5F7F7" transform="translate(0,0)"/>
<path d="" fill="#F6FAFB" transform="translate(0,0)"/>
<path d="" fill="#F5F8F9" transform="translate(0,0)"/>
<path d="" fill="#F8FBFC" transform="translate(0,0)"/>
<path d="" fill="#E0E6E8" transform="translate(0,0)"/>
<path d="" fill="#F8FCFD" transform="translate(0,0)"/>
<path d="" fill="#DFEAED" transform="translate(0,0)"/>
<path d="" fill="#F9FDFD" transform="translate(0,0)"/>
<path d="" fill="#F5FAFB" transform="translate(0,0)"/>
<path d="" fill="#EAF0F2" transform="translate(0,0)"/>
<path d="" fill="#E6F1F3" transform="translate(0,0)"/>
<path d="" fill="#E6F1F3" transform="translate(0,0)"/>
<path d="" fill="#EAF0F2" transform="translate(0,0)"/>
<path d="" fill="#F1FAFC" transform="translate(0,0)"/>
<path d="" fill="#E8F4F7" transform="translate(0,0)"/>
<path d="" fill="#EFF6F8" transform="translate(0,0)"/>
<path d="" fill="#E8EFF1" transform="translate(0,0)"/>
<path d="" fill="#E0ECEF" transform="translate(0,0)"/>
<path d="" fill="#F7FAFA" transform="translate(0,0)"/>
<path d="" fill="#FDFEFE" transform="translate(0,0)"/>
<path d="" fill="#E0E6E8" transform="translate(0,0)"/>
<path d="" fill="#E0E6E8" transform="translate(0,0)"/>
<path d="" fill="#F9FDFD" transform="translate(0,0)"/>
<path d="" fill="#FAFDFE" transform="translate(0,0)"/>
<path d="" fill="#E0E6E8" transform="translate(0,0)"/>
<path d="" fill="#EAF0F2" transform="translate(0,0)"/>
<path d="" fill="#F7FCFC" transform="translate(0,0)"/>
<path d="" fill="#EAF1F2" transform="translate(0,0)"/>
<path d="" fill="#F7FAFA" transform="translate(0,0)"/>
<path d="" fill="#EFF8F9" transform="translate(0,0)"/>
<path d="" fill="#F8FAFB" transform="translate(0,0)"/>
<path d="" fill="#F4F7F7" transform="translate(0,0)"/>
<path d="" fill="#F9FBFC" transform="translate(0,0)"/>
<path d="" fill="#F2F9FB" transform="translate(0,0)"/>
<path d="" fill="#DAE1E3" transform="translate(0,0)"/>
<path d="" fill="#E9F0F2" transform="translate(0,0)"/>
<path d="" fill="#E0E6E8" transform="translate(0,0)"/>
<path d="" fill="#F8FCFD" transform="translate(0,0)"/>
<path d="" fill="#E0E6E8" transform="translate(0,0)"/>
<path d="" fill="#FBFDFD" transform="translate(0,0)"/>
<path d="" fill="#E9F0F2" transform="translate(0,0)"/>
<path d="" fill="#F5FBFC" transform="translate(0,0)"/>
<path d="" fill="#F8FBFC" transform="translate(0,0)"/>
<path d="" fill="#F8FBFC" transform="translate(0,0)"/>
<path d="" fill="#EFF6F7" transform="translate(0,0)"/>
<path d="" fill="#F1F8F9" transform="translate(0,0)"/>
<path d="" fill="#F1F7F8" transform="translate(0,0)"/>
<path d="" fill="#EFF6F7" transform="translate(0,0)"/>
<path d="" fill="#F2F9FB" transform="translate(0,0)"/>
<path d="" fill="#EDF4F5" transform="translate(0,0)"/>
<path d="" fill="#F8FCFC" transform="translate(0,0)"/>
<path d="" fill="#DFE6E7" transform="translate(0,0)"/>
<path d="" fill="#F8FBFC" transform="translate(0,0)"/>
<path d="" fill="#E0E6E8" transform="translate(0,0)"/>
<path d="" fill="#E0E6E8" transform="translate(0,0)"/>
<path d="" fill="#EAF0F2" transform="translate(0,0)"/>
<path d="" fill="#EDF4F5" transform="translate(0,0)"/>
<path d="" fill="#F3F7F8" transform="translate(0,0)"/>
<path d="" fill="#E0E6E8" transform="translate(0,0)"/>
<path d="" fill="#F6F9F9" transform="translate(0,0)"/>
<path d="" fill="#F0F7F9" transform="translate(0,0)"/>
<path d="" fill="#E7EEEF" transform="translate(0,0)"/>
<path d="" fill="#E0E6E8" transform="translate(0,0)"/>
<path d="" fill="#F8FCFB" transform="translate(0,0)"/>
<path d="" fill="#F2F9FA" transform="translate(0,0)"/>
<path d="" fill="#FBFDFD" transform="translate(0,0)"/>
<path d="" fill="#EAEFEF" transform="translate(0,0)"/>
<path d="" fill="#E3E9EB" transform="translate(0,0)"/>
<path d="" fill="#F8FAFB" transform="translate(0,0)"/>
<path d="" fill="#F9FBFC" transform="translate(0,0)"/>
<path d="" fill="#E0E6E8" transform="translate(0,0)"/>
<path d="" fill="#EEF4F6" transform="translate(0,0)"/>
<path d="" fill="#F6F8F9" transform="translate(0,0)"/>
<path d="" fill="#E0E6E8" transform="translate(0,0)"/>
<path d="" fill="#F2F9FB" transform="translate(0,0)"/>
<path d="" fill="#EAF0F2" transform="translate(0,0)"/>
<path d="" fill="#E9F0F2" transform="translate(0,0)"/>
<path d="" fill="#E0E6E8" transform="translate(0,0)"/>
<path d="" fill="#E9F0F2" transform="translate(0,0)"/>
<path d="" fill="#E0E6E8" transform="translate(0,0)"/>
<path d="" fill="#E9F0F2" transform="translate(0,0)"/>
<path d="" fill="#E9F0F2" transform="translate(0,0)"/>
<path d="" fill="#E0E6E8" transform="translate(0,0)"/>
<path d="" fill="#E0E6E8" transform="translate(0,0)"/>
<path d="" fill="#EDF4F5" transform="translate(0,0)"/>
<path d="" fill="#E0E6E8" transform="translate(0,0)"/>
<path d="" fill="#FAFDFD" transform="translate(0,0)"/>
<path d="" fill="#E0E6E8" transform="translate(0,0)"/>
<path d="" fill="#E0E6E8" transform="translate(0,0)"/>
<path d="" fill="#E0E6E8" transform="translate(0,0)"/>
<path d="" fill="#F8FCFC" transform="translate(0,0)"/>
<path d="" fill="#EFF6F7" transform="translate(0,0)"/>
<path d="" fill="#EFF6F7" transform="translate(0,0)"/>
<path d="" fill="#E0E6E8" transform="translate(0,0)"/>
<path d="" fill="#E0E6E8" transform="translate(0,0)"/>
<path d="" fill="#F9FDFD" transform="translate(0,0)"/>
<path d="" fill="#EAF0F2" transform="translate(0,0)"/>
<path d="" fill="#E0E6E8" transform="translate(0,0)"/>
<path d="" fill="#EBF1F3" transform="translate(0,0)"/>
<path d="" fill="#E0E6E8" transform="translate(0,0)"/>
<path d="" fill="#EAF0F2" transform="translate(0,0)"/>
<path d="" fill="#EFF6F8" transform="translate(0,0)"/>
<path d="" fill="#E0E6E8" transform="translate(0,0)"/>
<path d="" fill="#F9FCFD" transform="translate(0,0)"/>
<path d="" fill="#ECF2F4" transform="translate(0,0)"/>
<path d="" fill="#F0F7F8" transform="translate(0,0)"/>
<path d="" fill="#F5FCFD" transform="translate(0,0)"/>
<path d="" fill="#F7FDFE" transform="translate(0,0)"/>
<path d="" fill="#E5EEF0" transform="translate(0,0)"/>
<path d="" fill="#F8FBFC" transform="translate(0,0)"/>
<path d="" fill="#E0E6E8" transform="translate(0,0)"/>
<path d="" fill="#EAF0F2" transform="translate(0,0)"/>
<path d="" fill="#F2F5F5" transform="translate(0,0)"/>
<path d="" fill="#F6F9F9" transform="translate(0,0)"/>
<path d="" fill="#F8FBFB" transform="translate(0,0)"/>
<path d="" fill="#E1E9EA" transform="translate(0,0)"/>
<path d="" fill="#E9F0F2" transform="translate(0,0)"/>
<path d="" fill="#F7F9FA" transform="translate(0,0)"/>
<path d="" fill="#D2E0E3" transform="translate(0,0)"/>
<path d="" fill="#E9F0F2" transform="translate(0,0)"/>
<path d="" fill="#E6EFF1" transform="translate(0,0)"/>
<path d="" fill="#E9F0F2" transform="translate(0,0)"/>
<path d="" fill="#DAEAED" transform="translate(0,0)"/>
<path d="" fill="#F8FBFC" transform="translate(0,0)"/>
<path d="" fill="#E9F3F6" transform="translate(0,0)"/>
<path d="" fill="#CBDFE3" transform="translate(0,0)"/>
<path d="" fill="#CCDEE1" transform="translate(0,0)"/>
<path d="" fill="#F6FBFC" transform="translate(0,0)"/>
<path d="" fill="#E4EEF0" transform="translate(0,0)"/>
<path d="" fill="#F9FBFC" transform="translate(0,0)"/>
<path d="" fill="#CFDFE2" transform="translate(0,0)"/>
<path d="" fill="#E8F0F2" transform="translate(0,0)"/>
<path d="" fill="#F4F7F7" transform="translate(0,0)"/>
<path d="" fill="#DAE4E6" transform="translate(0,0)"/>
<path d="" fill="#ECF4F5" transform="translate(0,0)"/>
<path d="" fill="#EEF5F7" transform="translate(0,0)"/>
<path d="" fill="#EEF5F7" transform="translate(0,0)"/>
<path d="" fill="#EDF4F5" transform="translate(0,0)"/>
<path d="" fill="#E4EEF0" transform="translate(0,0)"/>
<path d="" fill="#E9F0F2" transform="translate(0,0)"/>
<path d="" fill="#E4EEF0" transform="translate(0,0)"/>
<path d="" fill="#E8EEF0" transform="translate(0,0)"/>
<path d="" fill="#E0E6E8" transform="translate(0,0)"/>
<path d="" fill="#E0E6E8" transform="translate(0,0)"/>
<path d="" fill="#EAF0F2" transform="translate(0,0)"/>
<path d="" fill="#F2F5F6" transform="translate(0,0)"/>
<path d="" fill="#F8FAFB" transform="translate(0,0)"/>
<path d="" fill="#ECF3F4" transform="translate(0,0)"/>
<path d="" fill="#F6F9FA" transform="translate(0,0)"/>
<path d="" fill="#E0E6E8" transform="translate(0,0)"/>
<path d="" fill="#E0E6E8" transform="translate(0,0)"/>
<path d="" fill="#F7F9F9" transform="translate(0,0)"/>
<path d="" fill="#E0E6E8" transform="translate(0,0)"/>
<path d="" fill="#EAF1F3" transform="translate(0,0)"/>
<path d="" fill="#E0E6E8" transform="translate(0,0)"/>
<path d="" fill="#E1E8E9" transform="translate(0,0)"/>
<path d="" fill="#F2F9FB" transform="translate(0,0)"/>
<path d="" fill="#FBFCFD" transform="translate(0,0)"/>
<path d="" fill="#E0E6E8" transform="translate(0,0)"/>
<path d="" fill="#E0E6E8" transform="translate(0,0)"/>
</svg>
